<svg xmlns="http://www.w3.org/2000/svg" width="64" height="64" viewBox="0 0 64 64">
  <rect width="64" height="64" rx="14" fill="#1a1915"/>
  <path d="M20.12 10.57A24.5 24.5 0 0 1 43.88 10.57L36.36 24.13A9 9 0 0 0 27.64 24.13Z" fill="#f4f4f1"/><path d="M56.50 32.43A24.5 24.5 0 0 1 44.62 53.00L36.64 39.71A9 9 0 0 0 41.00 32.16Z" fill="#f4f4f1"/><path d="M19.38 53.00A24.5 24.5 0 0 1 7.50 32.43L23.00 32.16A9 9 0 0 0 27.36 39.71Z" fill="#f4f4f1"/>
  <circle cx="32" cy="32" r="4.6" fill="#d8b24a"/>
</svg>
