<svg xmlns="http://www.w3.org/2000/svg" viewBox="0 0 900 984" font-family="'IBM Plex Sans', system-ui, -apple-system, sans-serif">
<rect x="0" y="0" width="900" height="984" rx="16" fill="#f4f4f1" stroke="none" stroke-width="0"/>
<text x="40" y="36" text-anchor="start" font-size="13" fill="#c39a27" font-family="'IBM Plex Mono', ui-monospace, SFMono-Regular, Menlo, monospace" font-weight="600" letter-spacing="0.05em">THE MATH LOOP, END TO END</text>
<rect x="586" y="46" width="290" height="120" rx="8" fill="#efeee9" stroke="#e3e2db" stroke-width="1"/>
<text x="602" y="70" text-anchor="start" font-size="10.5" fill="#6b6b66" font-family="'IBM Plex Mono', ui-monospace, SFMono-Regular, Menlo, monospace" letter-spacing="0.05em">DIFFICULTY TIERS</text>
<text x="860" y="70" text-anchor="end" font-size="9.5" fill="#6b6b66" font-family="'IBM Plex Mono', ui-monospace, SFMono-Regular, Menlo, monospace">set by the gate</text>
<text x="602" y="94" text-anchor="start" font-size="11.5" fill="#1a1915" font-family="'IBM Plex Mono', ui-monospace, SFMono-Regular, Menlo, monospace">easy</text>
<text x="686" y="94" text-anchor="start" font-size="11.5" fill="#c39a27" font-family="'IBM Plex Mono', ui-monospace, SFMono-Regular, Menlo, monospace">→  Sonnet</text>
<text x="602" y="114" text-anchor="start" font-size="11.5" fill="#1a1915" font-family="'IBM Plex Mono', ui-monospace, SFMono-Regular, Menlo, monospace">medium</text>
<text x="686" y="114" text-anchor="start" font-size="11.5" fill="#1a1915" font-family="'IBM Plex Mono', ui-monospace, SFMono-Regular, Menlo, monospace">→  Opus, low effort</text>
<text x="602" y="134" text-anchor="start" font-size="11.5" fill="#1a1915" font-family="'IBM Plex Mono', ui-monospace, SFMono-Regular, Menlo, monospace">high</text>
<text x="686" y="134" text-anchor="start" font-size="11.5" fill="#1a1915" font-family="'IBM Plex Mono', ui-monospace, SFMono-Regular, Menlo, monospace">→  Opus, medium effort</text>
<text x="602" y="158" text-anchor="start" font-size="10" fill="#6b6b66" font-family="'IBM Plex Sans', system-ui, -apple-system, sans-serif" font-style="italic">used by solve and confirm</text>
<rect x="125.0" y="78.0" width="250" height="52" rx="10" fill="#ffffff" stroke="#e3e2db" stroke-width="1.4"/>
<text x="250" y="102" text-anchor="middle" font-size="15" fill="#1a1915" font-family="'IBM Plex Sans', system-ui, -apple-system, sans-serif">Haiku gate</text>
<text x="250" y="119" text-anchor="middle" font-size="10" fill="#6b6b66" font-family="'IBM Plex Mono', ui-monospace, SFMono-Regular, Menlo, monospace">reads: set? · corner? · difficulty</text>
<line x1="250" y1="130.0" x2="250" y2="163.0" stroke="#bdb9af" stroke-width="1.6"/>
<path d="M250 163.0 L246 156.0 L254 156.0 Z" fill="#bdb9af"/>
<polygon points="250,163.0 351.0,200 250,237.0 149.0,200" fill="#ffffff" stroke="#c39a27" stroke-width="1.6"/>
<text x="250" y="196" text-anchor="middle" font-size="12" fill="#1a1915" font-family="'IBM Plex Sans', system-ui, -apple-system, sans-serif">question set,</text>
<text x="250" y="213" text-anchor="middle" font-size="12" fill="#1a1915" font-family="'IBM Plex Sans', system-ui, -apple-system, sans-serif">nothing solved?</text>
<line x1="351.0" y1="200" x2="544.0" y2="200" stroke="#c39a27" stroke-width="1.6"/>
<path d="M544.0 200 L537.0 196 L537.0 204 Z" fill="#c39a27"/>
<text x="365.0" y="192" text-anchor="start" font-size="10" fill="#c39a27" font-family="'IBM Plex Mono', ui-monospace, SFMono-Regular, Menlo, monospace">yes</text>
<rect x="544.0" y="174.0" width="232" height="52" rx="10" fill="#ffffff" stroke="#c39a27" stroke-width="1.8"/>
<circle cx="559.0" cy="200" r="3" fill="#c39a27"/>
<text x="660" y="198" text-anchor="middle" font-size="15" fill="#1a1915" font-family="'IBM Plex Sans', system-ui, -apple-system, sans-serif">solve + cache</text>
<text x="660" y="215" text-anchor="middle" font-size="10" fill="#6b6b66" font-family="'IBM Plex Mono', ui-monospace, SFMono-Regular, Menlo, monospace">tier by difficulty, silent</text>
<line x1="250" y1="237.0" x2="250" y2="259.0" stroke="#bdb9af" stroke-width="1.6"/>
<path d="M250 259.0 L246 252.0 L254 252.0 Z" fill="#bdb9af"/>
<text x="261" y="252.0" text-anchor="start" font-size="10" fill="#6b6b66" font-family="'IBM Plex Mono', ui-monospace, SFMono-Regular, Menlo, monospace">no</text>
<polygon points="250,259.0 351.0,296 250,333.0 149.0,296" fill="#ffffff" stroke="#c39a27" stroke-width="1.6"/>
<text x="250" y="300" text-anchor="middle" font-size="12.5" fill="#1a1915" font-family="'IBM Plex Sans', system-ui, -apple-system, sans-serif">solution cached?</text>
<line x1="351.0" y1="296" x2="544.0" y2="296" stroke="#bdb9af" stroke-width="1.6"/>
<path d="M544.0 296 L537.0 292 L537.0 300 Z" fill="#bdb9af"/>
<text x="365.0" y="288" text-anchor="start" font-size="10" fill="#6b6b66" font-family="'IBM Plex Mono', ui-monospace, SFMono-Regular, Menlo, monospace">no</text>
<rect x="544.0" y="270.0" width="232" height="52" rx="10" fill="#ffffff" stroke="#6b6b66" stroke-width="1.3" stroke-dasharray="2 5"/>
<circle cx="558.0" cy="296" r="3" fill="#6b6b66"/>
<text x="668" y="300" text-anchor="middle" font-size="12.5" fill="#6b6b66" font-family="'IBM Plex Sans', system-ui, -apple-system, sans-serif">waiting for the question</text>
<line x1="250" y1="333.0" x2="250" y2="355.0" stroke="#bdb9af" stroke-width="1.6"/>
<path d="M250 355.0 L246 348.0 L254 348.0 Z" fill="#bdb9af"/>
<text x="261" y="348.0" text-anchor="start" font-size="10" fill="#6b6b66" font-family="'IBM Plex Mono', ui-monospace, SFMono-Regular, Menlo, monospace">yes</text>
<polygon points="250,355.0 351.0,392 250,429.0 149.0,392" fill="#ffffff" stroke="#c39a27" stroke-width="1.6"/>
<text x="250" y="396" text-anchor="middle" font-size="12.5" fill="#1a1915" font-family="'IBM Plex Sans', system-ui, -apple-system, sans-serif">corner mark drawn?</text>
<line x1="351.0" y1="392" x2="544.0" y2="392" stroke="#bdb9af" stroke-width="1.6"/>
<path d="M544.0 392 L537.0 388 L537.0 396 Z" fill="#bdb9af"/>
<text x="365.0" y="384" text-anchor="start" font-size="10" fill="#6b6b66" font-family="'IBM Plex Mono', ui-monospace, SFMono-Regular, Menlo, monospace">no</text>
<rect x="544.0" y="366.0" width="232" height="52" rx="10" fill="#ffffff" stroke="#6b6b66" stroke-width="1.3" stroke-dasharray="2 5"/>
<circle cx="558.0" cy="392" r="3" fill="#6b6b66"/>
<text x="668" y="396" text-anchor="middle" font-size="12.5" fill="#6b6b66" font-family="'IBM Plex Sans', system-ui, -apple-system, sans-serif">just tracks progress</text>
<line x1="250" y1="429.0" x2="250" y2="451.0" stroke="#bdb9af" stroke-width="1.6"/>
<path d="M250 451.0 L246 444.0 L254 444.0 Z" fill="#bdb9af"/>
<text x="261" y="444.0" text-anchor="start" font-size="10" fill="#6b6b66" font-family="'IBM Plex Mono', ui-monospace, SFMono-Regular, Menlo, monospace">yes</text>
<polygon points="250,451.0 351.0,488 250,525.0 149.0,488" fill="#ffffff" stroke="#c39a27" stroke-width="1.6"/>
<text x="250" y="484" text-anchor="middle" font-size="12" fill="#1a1915" font-family="'IBM Plex Sans', system-ui, -apple-system, sans-serif">a redo in progress?</text>
<text x="250" y="501" text-anchor="middle" font-size="12" fill="#1a1915" font-family="'IBM Plex Sans', system-ui, -apple-system, sans-serif">(falsch + arrow)</text>
<line x1="351.0" y1="488" x2="544.0" y2="488" stroke="#bdb9af" stroke-width="1.6"/>
<path d="M544.0 488 L537.0 484 L537.0 492 Z" fill="#bdb9af"/>
<text x="365.0" y="480" text-anchor="start" font-size="10" fill="#6b6b66" font-family="'IBM Plex Mono', ui-monospace, SFMono-Regular, Menlo, monospace">yes</text>
<rect x="544.0" y="462.0" width="232" height="52" rx="10" fill="#ffffff" stroke="#6b6b66" stroke-width="1.3" stroke-dasharray="2 5"/>
<circle cx="558.0" cy="488" r="3" fill="#6b6b66"/>
<text x="668" y="492" text-anchor="middle" font-size="12.5" fill="#6b6b66" font-family="'IBM Plex Sans', system-ui, -apple-system, sans-serif">let the redo settle</text>
<line x1="250" y1="525.0" x2="250" y2="550.0" stroke="#bdb9af" stroke-width="1.6"/>
<path d="M250 550.0 L246 543.0 L254 543.0 Z" fill="#bdb9af"/>
<text x="261" y="541.5" text-anchor="start" font-size="10" fill="#6b6b66" font-family="'IBM Plex Mono', ui-monospace, SFMono-Regular, Menlo, monospace">no</text>
<rect x="125.0" y="550.0" width="250" height="52" rx="10" fill="#ffffff" stroke="#e3e2db" stroke-width="1.4"/>
<text x="250" y="574" text-anchor="middle" font-size="15" fill="#1a1915" font-family="'IBM Plex Sans', system-ui, -apple-system, sans-serif">verify</text>
<text x="250" y="591" text-anchor="middle" font-size="10" fill="#6b6b66" font-family="'IBM Plex Mono', ui-monospace, SFMono-Regular, Menlo, monospace">Sonnet · vs the checklist</text>
<line x1="250" y1="602.0" x2="250" y2="627.0" stroke="#bdb9af" stroke-width="1.6"/>
<path d="M250 627.0 L246 620.0 L254 620.0 Z" fill="#bdb9af"/>
<polygon points="250,627.0 351.0,664 250,701.0 149.0,664" fill="#ffffff" stroke="#c39a27" stroke-width="1.6"/>
<text x="250" y="668" text-anchor="middle" font-size="12.5" fill="#1a1915" font-family="'IBM Plex Sans', system-ui, -apple-system, sans-serif">a result is wrong?</text>
<line x1="351.0" y1="664" x2="544.0" y2="664" stroke="#c39a27" stroke-width="1.6"/>
<path d="M544.0 664 L537.0 660 L537.0 668 Z" fill="#c39a27"/>
<text x="365.0" y="656" text-anchor="start" font-size="10" fill="#c39a27" font-family="'IBM Plex Mono', ui-monospace, SFMono-Regular, Menlo, monospace">yes</text>
<rect x="544.0" y="638.0" width="232" height="52" rx="10" fill="#ffffff" stroke="#c39a27" stroke-width="1.8"/>
<circle cx="558.0" cy="664" r="3.2" fill="#c39a27"/>
<text x="668" y="668" text-anchor="middle" font-size="12.5" fill="#1a1915" font-family="'IBM Plex Sans', system-ui, -apple-system, sans-serif">speaks the first-step fix</text>
<line x1="250" y1="701.0" x2="250" y2="726.0" stroke="#bdb9af" stroke-width="1.6"/>
<path d="M250 726.0 L246 719.0 L254 719.0 Z" fill="#bdb9af"/>
<text x="261" y="717.5" text-anchor="start" font-size="10" fill="#6b6b66" font-family="'IBM Plex Mono', ui-monospace, SFMono-Regular, Menlo, monospace">no</text>
<rect x="125.0" y="726.0" width="250" height="52" rx="10" fill="#ffffff" stroke="#c39a27" stroke-width="1.8"/>
<circle cx="140.0" cy="752" r="3" fill="#c39a27"/>
<text x="250" y="750" text-anchor="middle" font-size="15" fill="#1a1915" font-family="'IBM Plex Sans', system-ui, -apple-system, sans-serif">confirm</text>
<text x="250" y="767" text-anchor="middle" font-size="10" fill="#6b6b66" font-family="'IBM Plex Mono', ui-monospace, SFMono-Regular, Menlo, monospace">tier by difficulty · signs off</text>
<line x1="250" y1="778.0" x2="250" y2="807.0" stroke="#bdb9af" stroke-width="1.6"/>
<path d="M250 807.0 L246 800.0 L254 800.0 Z" fill="#bdb9af"/>
<polygon points="250,807.0 351.0,844 250,881.0 149.0,844" fill="#ffffff" stroke="#c39a27" stroke-width="1.6"/>
<text x="250" y="840" text-anchor="middle" font-size="12" fill="#1a1915" font-family="'IBM Plex Sans', system-ui, -apple-system, sans-serif">every part done,</text>
<text x="250" y="857" text-anchor="middle" font-size="12" fill="#1a1915" font-family="'IBM Plex Sans', system-ui, -apple-system, sans-serif">double-underlined?</text>
<line x1="351.0" y1="844" x2="544.0" y2="844" stroke="#c39a27" stroke-width="1.6"/>
<path d="M544.0 844 L537.0 840 L537.0 848 Z" fill="#c39a27"/>
<text x="365.0" y="836" text-anchor="start" font-size="10" fill="#c39a27" font-family="'IBM Plex Mono', ui-monospace, SFMono-Regular, Menlo, monospace">no</text>
<rect x="544.0" y="818.0" width="232" height="52" rx="10" fill="#ffffff" stroke="#c39a27" stroke-width="1.8"/>
<circle cx="558.0" cy="844" r="3.2" fill="#c39a27"/>
<text x="668" y="848" text-anchor="middle" font-size="12.5" fill="#1a1915" font-family="'IBM Plex Sans', system-ui, -apple-system, sans-serif">speaks what is still open</text>
<line x1="250" y1="881.0" x2="250" y2="890.0" stroke="#bdb9af" stroke-width="1.6"/>
<path d="M250 890.0 L246 883.0 L254 883.0 Z" fill="#bdb9af"/>
<text x="261" y="889.5" text-anchor="start" font-size="10" fill="#6b6b66" font-family="'IBM Plex Mono', ui-monospace, SFMono-Regular, Menlo, monospace">yes</text>
<rect x="134.0" y="890.0" width="232" height="52" rx="10" fill="#ffffff" stroke="#c39a27" stroke-width="1.8"/>
<circle cx="148.0" cy="916" r="3.2" fill="#c39a27"/>
<text x="258" y="920" text-anchor="middle" font-size="12.5" fill="#1a1915" font-family="'IBM Plex Sans', system-ui, -apple-system, sans-serif">says “Correct” · auto-clears</text>
<text x="450.0" y="966" text-anchor="middle" font-size="12" fill="#6b6b66" font-family="'IBM Plex Sans', system-ui, -apple-system, sans-serif">One pass per scan: the gate is the door, only a corner mark opens the graders, and the difficulty tier decides who does the work.</text>
</svg>
