<svg xmlns="http://www.w3.org/2000/svg" viewBox="0 0 880 200" font-family="'IBM Plex Sans', system-ui, -apple-system, sans-serif">
  <rect x="0" y="0" width="880" height="200" rx="14" fill="#f4f4f1"/>

  <!-- nodes -->
  <rect x="24"  y="92" width="160" height="48" rx="10" fill="#ffffff" stroke="#e3e1da" stroke-width="1.5"/>
  <text x="104" y="121" text-anchor="middle" font-size="16" fill="#1a1a1a">Neo Smartpen</text>

  <rect x="248" y="92" width="160" height="48" rx="10" fill="#ffffff" stroke="#e3e1da" stroke-width="1.5"/>
  <text x="328" y="121" text-anchor="middle" font-size="16" fill="#1a1a1a">Canvas</text>

  <rect x="472" y="92" width="160" height="48" rx="10" fill="#ffffff" stroke="#c39a27" stroke-width="1.8"/>
  <circle cx="492" cy="116" r="3" fill="#c39a27"/>
  <text x="560" y="121" text-anchor="middle" font-size="16" fill="#1a1915">Claude · vision</text>

  <rect x="696" y="92" width="160" height="48" rx="10" fill="#ffffff" stroke="#e3e1da" stroke-width="1.5"/>
  <text x="776" y="121" text-anchor="middle" font-size="16" fill="#1a1a1a">Voice · chime</text>

  <!-- arrows -->
  <line x1="184" y1="116" x2="248" y2="116" stroke="#bdb9af" stroke-width="1.5"/>
  <path d="M248,116 L240,112 L240,120 Z" fill="#bdb9af"/>
  <text x="216" y="84" text-anchor="middle" font-size="11" fill="#8a877e" font-family="'IBM Plex Mono', monospace">Bluetooth</text>

  <line x1="408" y1="116" x2="472" y2="116" stroke="#bdb9af" stroke-width="1.5"/>
  <path d="M472,116 L464,112 L464,120 Z" fill="#bdb9af"/>
  <text x="440" y="84" text-anchor="middle" font-size="11" fill="#8a877e" font-family="'IBM Plex Mono', monospace">debounce · PNG</text>

  <line x1="632" y1="116" x2="696" y2="116" stroke="#bdb9af" stroke-width="1.5"/>
  <path d="M696,116 L688,112 L688,120 Z" fill="#bdb9af"/>
  <text x="664" y="84" text-anchor="middle" font-size="11" fill="#8a877e" font-family="'IBM Plex Mono', monospace">verdict</text>

  <!-- caption -->
  <text x="440" y="174" text-anchor="middle" font-size="13" fill="#6b6b66">write on paper · get the correction in your ear</text>
</svg>
